<svg class="inline-flex max-w-full fill-gray-600 hover:fill-gray-700" width="65" height="21" viewBox="0 0 65 21" xmlns="http://www.w3.org/2000/svg"><path d="M28.178 20.65h-5.304L26.19.363h5.305L28.178 20.65ZM18.412.363l-5.056 13.953-.598-3.004-1.785-9.123S10.758.363 8.457.363H.098L0 .706s2.556.53 5.548 2.319l4.608 17.626h5.526L24.121.363h-5.709ZM60.13 20.65H65L60.754.362H56.49c-1.969 0-2.448 1.512-2.448 1.512l-7.91 18.776h5.529l1.105-3.014h6.743l.62 3.014Zm-5.836-7.176 2.786-7.592 1.568 7.592h-4.354ZM46.546 5.24l.757-4.356S44.968 0 42.533 0C39.9 0 33.65 1.146 33.65 6.716c0 5.241 7.336 5.306 7.336 8.06 0 2.752-6.58 2.26-8.751.523l-.789 4.555S33.814 21 37.433 21c3.62 0 9.08-1.866 9.08-6.946 0-5.275-7.402-5.766-7.402-8.059 0-2.294 5.166-2 7.435-.754Z" fill="#4B5563"></path></svg>